<?xml version="1.0" standalone="no"?><!DOCTYPE svg PUBLIC "-//W3C//DTD SVG 1.1//EN" "http://www.w3.org/Graphics/SVG/1.1/DTD/svg11.dtd"><svg t="1765785405099" class="icon" viewBox="0 0 1024 1024" version="1.1" xmlns="http://www.w3.org/2000/svg" p-id="7106" xmlns:xlink="http://www.w3.org/1999/xlink" width="200" height="200"><path d="M831.455 81.068H192.084c-70.506 0-127.872 57.365-127.872 127.872v479.529c0 70.507 57.366 127.878 127.872 127.878h639.372c70.507 0 127.878-57.371 127.878-127.878V208.94c-0.001-70.507-57.372-127.872-127.879-127.872z m73.712 613.507c0 36.162-29.409 65.571-65.571 65.571H183.942c-36.156 0-65.564-29.408-65.564-65.571V202.834c0-36.156 29.409-65.564 65.564-65.564h655.655c36.162 0 65.571 29.408 65.571 65.564v491.741zM863.426 885.042H160.119c-17.659 0-31.971 13.247-31.971 29.591 0 16.339 14.312 29.585 31.971 29.585h703.307c17.654 0 31.971-13.247 31.971-29.585 0.001-16.344-14.317-29.591-31.971-29.591z" p-id="7107"></path><path d="M426.366 349.892a515.84 515.84 0 0 0-16.815-42.103c-5.435-11.83-12.736-20.809-21.912-27.015-9.176-6.171-20.907-8.903-35.18-8.201-16.306 1.039-28.551 5.293-36.688 12.707a80.092 80.092 0 0 0-19.37 27c-4.767 10.581-9.352 22.058-13.767 34.415l-83.58 233.052c-2.029 5.307-3.053 10.868-3.053 16.669 0 5.833 2.303 12.02 6.893 18.54 4.586 6.542 12.56 10.059 23.955 10.615 11.366 0.512 18.849-1.615 22.429-6.361 3.566-4.78 6.873-13.522 9.941-21.292l19.834-53.308h145.779l17.854 57.034c2.029 7.063 5.609 14.049 10.693 18.444 5.083 4.394 12.327 6.795 21.658 5.917 9.337-0.898 16.912-4.015 22.683-10.024 5.772-6.01 8.585-11.942 8.41-18.127a79.369 79.369 0 0 0-3.327-19.771l-76.437-228.191zM288.533 486.153l58.462-144.834 3.134-8.088c1.678-3.025 3.568-4.518 5.661-4.895 1.672 0 3.152 1.236 4.415 3.523 1.264 2.28 2.918 5.063 5.023 9.996l49.63 144.299H288.533zM793.958 331.365a129.825 129.825 0 0 0-48.414-36.01c-18.864-8.122-36.429-14.673-52.752-17.313-16.316-2.639-31.438-5.16-45.379-5.16h-38.059c-9.844 0-19.292 1.789-28.292 3.02-9.015 1.229-17.068 5.272-24.215 10.917-7.127 5.658-9.029 12.995-11.907 21.483-2.878 8.488-1.2 19.707-1.2 33.136v203.369c0 11.298-2.526 22.698-1.341 34.171 1.18 11.477 2.941 20.477 8.361 27 5.435 6.536 12.995 12.083 24.215 14.195 11.219 2.108 18.75 4.361 24.2 4.361h48.258c7.478 0 16.751-1.804 27.78-3.053 11.044-1.229 23.542-3.932 37.463-6.966 13.941-3.004 28.727-9.639 44.341-19.376a164.55 164.55 0 0 0 40.298-35.068c11.204-13.604 20.204-32.131 27-55.434 5.771-20.457 8.565-40.726 8.389-60.677a203.575 203.575 0 0 0-9.428-59.332 151.482 151.482 0 0 0-29.318-53.263z m-26.776 163.39c-4.653 15.093-13.067 28.932-24.562 40.373-11.667 11.72-24.276 20.055-37.845 24.996-13.565 4.958-24.843 7.871-33.889 8.787-9.031 0.925-59.112 2.468-59.112 2.468-7.528 0.348-9.863-1.178-11.938-4.674-2.053-3.479-0.638-7.789-0.638-12.897v-211.45c0-4.391-1.307-7.759 0.941-10.162 2.248-2.367 3.771-3.662 6.977-3.844 3.189-0.181 64.974 1.194 78.538 4.128 13.797 3.075 27.027 8.072 39.241 14.835 12.786 6.96 23.746 17.95 33.149 32.947 9.419 15.033 14.59 35.902 15.743 62.619 0.335 19.407-1.892 36.695-6.605 51.874z" p-id="7108"></path></svg>