<?xml version="1.0" standalone="no"?><!DOCTYPE svg PUBLIC "-//W3C//DTD SVG 1.1//EN" "http://www.w3.org/Graphics/SVG/1.1/DTD/svg11.dtd"><svg t="1765899974791" class="icon" viewBox="0 0 1024 1024" version="1.1" xmlns="http://www.w3.org/2000/svg" p-id="15317" xmlns:xlink="http://www.w3.org/1999/xlink" width="200" height="200"><path d="M745.3 715.9c-4.3-13.9-12.1-25.1-23.6-33.6-11.5-8.5-24.5-15.6-39.2-21.2-14.7-5.6-29.9-10.4-45.6-14.4-15.7-4-30-8.7-42.8-14-14.4-5.9-25.7-12.5-34-20s-14.4-15.2-18.4-23.2c-4-8-6.1-16.1-6.4-24.4-0.3-8.3 0.1-16.4 1.2-24.4 1.1-6.4 2.7-11.7 4.8-16 2.1-4.3 4.8-8.1 8-11.6s6.8-6.7 10.8-9.6c4-2.9 8.4-6.5 13.2-10.8 4.3-3.7 8.3-8.8 12-15.2 3.7-6.4 6.9-13.1 9.6-20 2.7-7.5 5.3-15.7 8-24.8 4.8-1.6 9.6-4.5 14.4-8.8 3.7-3.7 7.5-8.9 11.2-15.6 3.7-6.7 6.1-15.6 7.2-26.8 1.1-8.5 0.9-15.7-0.4-21.6-1.3-5.9-3.1-10.7-5.2-14.4-2.1-4.3-5.1-7.5-8.8-9.6 0-20.8-1.3-41.9-4-63.2-2.7-18.1-7.2-37.3-13.6-57.6-6.4-20.3-16.5-38.9-30.4-56-5.9-7.5-13.5-14.9-22.8-22.4-9.3-7.5-20.1-14.1-32.4-20-12.3-5.9-25.5-10.5-39.6-14-14.1-3.5-28.9-5.2-44.4-5.2-11.7 0-24.1 0.9-37.2 2.8-13.1 1.9-26 5.5-38.8 10.8-12.8 5.3-25.3 12.7-37.6 22s-23.5 21.5-33.6 36.4c-10.7 15.5-18.8 32.7-24.4 51.6-5.6 18.9-9.5 36.9-11.6 54-2.7 19.7-3.7 39.7-3.2 60-4.3 5.3-7.5 10.9-9.6 16.8-2.1 5.3-3.6 11.6-4.4 18.8-0.8 7.2 0.1 15.3 2.8 24.4 2.7 9.1 5.7 16 9.2 20.8 3.5 4.8 6.8 8.5 10 11.2 3.7 2.7 7.5 4.5 11.2 5.6 2.7 8.5 5.3 16.8 8 24.8 2.7 6.9 5.6 13.7 8.8 20.4 3.2 6.7 6.9 11.9 11.2 15.6 9.1 6.9 17.3 13.9 24.8 20.8s11.7 16.5 12.8 28.8c0.5 8.5 0.8 16.3 0.8 23.2 0 6.9-1.3 13.6-4 20s-6.9 12.7-12.8 18.8c-5.9 6.1-14.4 12.7-25.6 19.6-13.9 9.1-30 16-48.4 20.8-18.4 4.8-36.1 10.1-53.2 16s-32.1 13.9-45.2 24c-13.1 10.1-21.2 24.8-24.4 44-4.8 34.1-5.7 62.1-2.8 84 2.9 21.9 7.1 34.9 12.4 39.2 3.2 2.7 10.7 5.6 22.4 8.8 11.7 3.2 26 6.4 42.8 9.6 16.8 3.2 35.5 6.4 56 9.6 20.5 3.2 41.3 6 62.4 8.4 21.1 2.4 41.5 4.4 61.2 6 19.7 1.6 37.3 2.4 52.8 2.4s33.6-0.7 54.4-2c20.8-1.3 42.4-3.3 64.8-6s44.8-5.7 67.2-9.2c22.4-3.5 42.8-7.2 61.2-11.2 18.4-4 33.7-8.1 46-12.4 12.3-4.3 19.7-8.3 22.4-12 3.7-5.9 6.5-14.4 8.4-25.6 1.9-11.2 2.8-23.1 2.8-35.6s-0.8-24.9-2.4-37.2c-1.6-12.2-3.8-22.4-6.4-30.4z m-256.8-36c-4.3 10.7-10.4 18.9-18.4 24.8 1.1 4.3 2.7 11.2 4.8 20.8 2.1 9.6 4.1 19.6 6 30 1.9 10.4 3.6 20 5.2 28.8s2.4 14.8 2.4 18c0 3.2-2 7.2-6 12s-8.7 9.6-14 14.4c-5.3 4.8-10.7 8.9-16 12.4-5.3 3.5-9.6 5.2-12.8 5.2-2.7 0-6.9-1.9-12.8-5.6-5.9-3.7-11.9-8.1-18-13.2s-11.5-10.1-16-15.2-6.8-8.9-6.8-11.6c0-4.8 0.9-11.9 2.8-21.2 1.9-9.3 4.1-19.2 6.8-29.6 2.7-10.4 5.1-20 7.2-28.8 2.1-8.8 3.7-14.8 4.8-18-2.7-3.2-5.1-6.7-7.2-10.4-2.1-3.7-4.5-8.3-7.2-13.6-1.1-2.7-0.4-6 2-10s5.5-7.9 9.2-11.6c4.3-4.3 9.3-8.8 15.2-13.6h40c6.4 4.8 12 9.3 16.8 13.6 4.3 3.7 7.6 7.6 10 11.6 2.4 4 3 7.6 2 10.8z" fill="#CBCBCB" p-id="15318"></path><path d="M903.7 598.3H689.3c9.1 4.8 18 11.2 26.8 19.2s16.9 17.9 24.4 29.6h163.2c3.7 0 6.5-2.8 8.4-8.4 1.9-5.6 2.8-11.3 2.8-17.2 0-5.3-0.9-10.5-2.8-15.6-1.9-5-4.7-7.6-8.4-7.6zM900.1 263.1c-9.9-8.5-22.5-12.8-38-12.8H671.7c-1.6 18.1-2.8 37.7-3.6 58.8-0.8 21.1-0.9 43.6-0.4 67.6 1.1 28.3-2.8 56.7-11.6 85.2s-21.7 56.7-38.8 84.4h297.6V299.1c0-15.4-5-27.4-14.8-36z" fill="#CBCBCB" p-id="15319"></path></svg>