<?xml version="1.0" standalone="no"?><!DOCTYPE svg PUBLIC "-//W3C//DTD SVG 1.1//EN" "http://www.w3.org/Graphics/SVG/1.1/DTD/svg11.dtd"><svg t="1769698878363" class="icon" viewBox="0 0 1024 1024" version="1.1" xmlns="http://www.w3.org/2000/svg" p-id="10792" xmlns:xlink="http://www.w3.org/1999/xlink" width="200" height="200"><path d="M942.08 755.712H81.92c-22.528 0-40.96-18.432-40.96-40.96v-532.48c0-22.528 18.432-40.96 40.96-40.96h860.16c22.528 0 40.96 18.432 40.96 40.96v532.48c0 22.528-18.432 40.96-40.96 40.96zM81.92 182.272v532.48h860.16v-532.48H81.92zM0 878.592h1024v40.96H0z" fill="" p-id="10793"></path><path d="M405.504 542.72h-157.696l-40.96 90.112H147.456l184.32-393.216 176.128 393.216h-61.44l-40.96-90.112z m-22.528-53.248L327.68 362.496l-57.344 126.976h112.64zM550.912 632.832V262.144h77.824c36.864 0 67.584 4.096 88.064 10.24 22.528 8.192 45.056 18.432 63.488 36.864 38.912 34.816 57.344 79.872 57.344 137.216 0 57.344-20.48 102.4-59.392 139.264-20.48 18.432-40.96 30.72-63.488 36.864-20.48 6.144-49.152 10.24-88.064 10.24h-75.776z m57.344-53.248h24.576c24.576 0 45.056-2.048 63.488-8.192 16.384-6.144 30.72-14.336 45.056-26.624 26.624-24.576 40.96-57.344 40.96-98.304s-14.336-73.728-40.96-98.304c-24.576-22.528-61.44-34.816-108.544-34.816h-24.576v266.24z" fill="" p-id="10794"></path></svg>