<?xml version="1.0" standalone="no"?><!DOCTYPE svg PUBLIC "-//W3C//DTD SVG 1.1//EN" "http://www.w3.org/Graphics/SVG/1.1/DTD/svg11.dtd"><svg t="1768362605484" class="icon" viewBox="0 0 1024 1024" version="1.1" xmlns="http://www.w3.org/2000/svg" p-id="5556" xmlns:xlink="http://www.w3.org/1999/xlink" width="200" height="200"><path d="M614.72 278.72l63.36 63.36L575.36 444.8h93.44v89.6H556.8v44.8h112v89.6H556.8v89.6H467.2v-89.6H355.2v-89.6H467.2v-44.8H355.2v-89.6h93.44L345.92 342.08l63.36-63.36L512 381.44l102.72-102.656z" fill="#3B89FC" p-id="5557"></path><path d="M512 64a448 448 0 0 1 359.616 715.264l-6.272 8.128-70.592-55.04a358.4 358.4 0 1 0-77.248 73.408l7.68-5.632 53.376 72A448 448 0 1 1 512 64z" fill="#3B89FC" p-id="5558"></path></svg>