<?xml version="1.0" standalone="no"?><!DOCTYPE svg PUBLIC "-//W3C//DTD SVG 1.1//EN" "http://www.w3.org/Graphics/SVG/1.1/DTD/svg11.dtd"><svg t="1767009646332" class="icon" viewBox="0 0 1024 1024" version="1.1" xmlns="http://www.w3.org/2000/svg" p-id="3504" xmlns:xlink="http://www.w3.org/1999/xlink" width="200" height="200"><path d="M264.533333 260.266667l306.346667-146.773334a28.16 28.16 0 0 1 33.28 0 33.28 33.28 0 0 1 18.346667 29.44v732.586667a46.08 46.08 0 0 1-3.84 25.6c-3.413333 3.413333-7.253333 10.666667-10.666667 10.666667a63.146667 63.146667 0 0 1-29.866667 3.84H220.586667a45.226667 45.226667 0 0 1-25.6-3.84c-3.413333-3.413333-10.666667-7.253333-10.666667-10.666667a46.08 46.08 0 0 1-3.84-25.6V413.866667a271.786667 271.786667 0 0 1 7.253333-69.546667 85.333333 85.333333 0 0 1 22.186667-40.106667A291.413333 291.413333 0 0 1 264.533333 260.266667z m62.72 215.893333a33.706667 33.706667 0 0 0 29.866667 36.693333h88.746667a33.706667 33.706667 0 0 0 29.44-36.693333 33.28 33.28 0 0 0-29.44-36.266667H357.12a33.28 33.28 0 0 0-29.866667 36.266667z m4.266667 110.08a59.733333 59.733333 0 0 0 0 36.693333 27.733333 27.733333 0 0 0 25.6 18.346667h88.32a33.706667 33.706667 0 0 0 29.866667-36.693333 34.133333 34.133333 0 0 0-29.866667-36.693334H357.12c-11.093333 0-18.346667 7.253333-25.6 17.92z m-4.266667 146.346667a33.706667 33.706667 0 0 0 29.866667 36.693333h88.746667a37.12 37.12 0 0 0 0-72.96H357.12a33.28 33.28 0 0 0-29.866667 36.266667z" fill="#5555FF" p-id="3505"></path><path d="M747.946667 304.213333a35.413333 35.413333 0 0 0-33.28-5.546666 28.586667 28.586667 0 0 0-18.346667 29.44v547.413333a45.226667 45.226667 0 0 0 3.84 25.6c3.413333 7.253333 7.253333 7.253333 10.666667 11.093333s11.093333 3.413333 22.186666 3.413334h73.813334c14.933333 0 18.346667 0 22.186666-3.413334l10.666667-11.093333c3.84-3.413333 3.84-11.093333 3.84-25.6v-391.68a173.226667 173.226667 0 0 0-3.84-55.04 131.413333 131.413333 0 0 0-14.506667-33.28 353.28 353.28 0 0 0-33.28-42.666667l-42.666666-47.36z" fill="#5555FF" opacity=".32" p-id="3506"></path></svg>