<?xml version="1.0" standalone="no"?><!DOCTYPE svg PUBLIC "-//W3C//DTD SVG 1.1//EN" "http://www.w3.org/Graphics/SVG/1.1/DTD/svg11.dtd"><svg t="1769610406561" class="icon" viewBox="0 0 1024 1024" version="1.1" xmlns="http://www.w3.org/2000/svg" p-id="6172" xmlns:xlink="http://www.w3.org/1999/xlink" width="200" height="200"><path d="M891.392 928H151.808a46.208 46.208 0 0 1-46.208-46.208V142.208c0-25.536 10.688-42.368 36.224-42.368 25.6 0 36.48 16.832 36.48 42.368V851.84h713.088c25.536 0 46.336 11.904 46.336 37.44 0 25.536-20.8 38.784-46.336 38.784z m-568.96-194.112c-17.6 0-32-11.52-32-36.992V490.048c0-25.536 14.4-36.672 32-36.672 17.728 0 32 11.136 32 36.672v206.848c0 25.536-14.272 36.992-32 36.992z m175.68 0.256c-17.664 0-32-11.712-32-37.248V628.736c0-25.6 14.336-36.672 32-36.672s32 11.136 32 36.672v68.16c0 25.536-14.336 37.248-32 37.248z m175.68 0.384c-17.664 0-32-12.16-32-37.632V490.048c0-25.536 14.336-36.288 32-36.288s32 10.752 32 36.288v206.848c0 25.536-14.336 37.632-32 37.632z m175.616 1.6c-17.664 0-32-13.696-32-39.232v-160.64c0-25.536 14.336-37.632 32-37.632s32 12.16 32 37.632v160.64c0 25.536-14.336 39.232-32 39.232zM521.6 445.248a46.208 46.208 0 0 1-32.832-13.376L303.872 248.704a33.408 33.408 0 0 1 0-49.856c16.512-15.104 38.144-7.744 49.408 5.44l168.32 170.304 204.672-219.392c19.712-18.688 41.728-16.32 60.608 3.2l117.504 117.568c17.024 18.048 23.424 38.912 8.96 53.056-14.336 14.08-35.648 11.712-52.864-4.48l-104.192-110.4L554.432 431.36a46.208 46.208 0 0 1-32.832 13.824z" fill="#6893DF" p-id="6173"></path></svg>